<svg width="30" height="30" viewBox="0 0 85 86" fill="none" xmlns="http://www.w3.org/2000/svg">
<path d="M17.7083 74.875C15.7604 74.875 14.0781 74.1962 12.6615 72.8385C11.3038 71.4219 10.625 69.7396 10.625 67.7917V18.2083C10.625 16.2604 11.3038 14.6076 12.6615 13.25C14.0781 11.8333 15.7604 11.125 17.7083 11.125H67.2917C69.2396 11.125 70.8924 11.8333 72.25 13.25C73.6667 14.6076 74.375 16.2604 74.375 18.2083V67.7917C74.375 69.7396 73.6667 71.4219 72.25 72.8385C70.8924 74.1962 69.2396 74.875 67.2917 74.875H17.7083ZM17.7083 67.7917H67.2917V18.2083H17.7083V67.7917ZM21.25 60.7083H63.75L50.4688 43L39.8438 57.1667L31.875 46.5417L21.25 60.7083ZM17.7083 67.7917V18.2083V67.7917Z" fill="white"/>
</svg>
